<?xml version="1.0" encoding="UTF-8"?>
<svg xmlns="http://www.w3.org/2000/svg" width="414.5" height="198.213" viewBox="0 0 414.5 198.213"><defs><style>@font-face { font-family: 'FondiNewCM'; font-style: normal; src: url('fonts/NewCM10-Regular.otf') format('opentype'); }
@font-face { font-family: 'FondiNewCM'; font-style: italic; src: url('fonts/NewCM10-Italic.otf') format('opentype'); }</style></defs><g><text x="12.5" y="110.713" font-family="FondiNewCM" font-size="50" font-style="italic" text-anchor="middle" dominant-baseline="alphabetic" fill="rgb(255,255,255)">f</text><text x="62.0" y="109.713" font-family="FondiNewCM" font-size="50" font-style="italic" text-anchor="middle" dominant-baseline="alphabetic" fill="rgb(255,255,255)">x</text><text x="82.0" y="92.713" font-family="FondiNewCM" font-size="37" font-style="normal" text-anchor="middle" dominant-baseline="alphabetic" fill="rgb(255,255,255)">2</text><polyline points="41.66,110.412 41.571,110.304 41.482,110.197 41.394,110.089 41.305,109.982 41.216,109.874 41.127,109.767 41.039,109.659 40.95,109.552 40.861,109.444 40.773,109.337 40.684,109.229 40.595,109.121 40.506,109.014 40.418,108.907 40.329,108.799 40.24,108.692 40.24,108.692 40.152,108.584 40.064,108.477 39.976,108.369 39.888,108.262 39.799,108.154 39.711,108.047 39.623,107.939 39.535,107.832 39.447,107.724 39.359,107.617 39.271,107.509 39.182,107.401 39.094,107.294 39.006,107.187 38.918,107.079 38.83,106.972 38.763,106.864 38.696,106.757 38.629,106.649 38.562,106.542 38.496,106.434 38.429,106.327 38.362,106.219 38.295,106.112 38.228,106.004 38.161,105.897 38.094,105.789 38.027,105.681 37.961,105.574 37.894,105.467 37.827,105.359 37.76,105.252 37.701,105.144 37.641,105.037 37.582,104.929 37.523,104.822 37.463,104.714 37.404,104.607 37.344,104.499 37.285,104.392 37.226,104.284 37.166,104.177 37.107,104.069 37.047,103.962 36.988,103.854 36.929,103.747 36.869,103.639 36.81,103.532 36.761,103.424 36.713,103.317 36.664,103.209 36.615,103.102 36.566,102.994 36.517,102.887 36.469,102.779 36.42,102.672 36.371,102.564 36.323,102.457 36.274,102.349 36.225,102.242 36.176,102.134 36.127,102.027 36.079,101.919 36.03,101.812 35.987,101.691 35.944,101.57 35.901,101.449 35.858,101.328 35.814,101.207 35.771,101.086 35.728,100.965 35.685,100.844 35.642,100.723 35.599,100.602 35.556,100.481 35.513,100.36 35.469,100.239 35.426,100.118 35.383,99.997 35.34,99.877 35.312,99.769 35.285,99.662 35.258,99.554 35.23,99.447 35.203,99.339 35.175,99.232 35.148,99.124 35.12,99.017 35.093,98.909 35.065,98.802 35.038,98.694 35.01,98.587 34.983,98.479 34.955,98.372 34.928,98.264 34.9,98.157 34.876,98.049 34.852,97.942 34.829,97.834 34.805,97.727 34.781,97.619 34.758,97.512 34.734,97.404 34.71,97.297 34.686,97.189 34.663,97.082 34.639,96.974 34.615,96.867 34.591,96.759 34.568,96.652 34.544,96.544 34.52,96.437 34.503,96.329 34.485,96.222 34.468,96.114 34.45,96.007 34.433,95.899 34.415,95.792 34.398,95.684 34.38,95.577 34.363,95.469 34.345,95.362 34.328,95.254 34.31,95.147 34.293,95.039 34.275,94.932 34.258,94.824 34.24,94.717 34.227,94.609 34.214,94.502 34.201,94.394 34.188,94.287 34.174,94.179 34.161,94.072 34.148,93.964 34.135,93.857 34.122,93.749 34.109,93.642 34.096,93.534 34.083,93.427 34.069,93.319 34.056,93.212 34.043,93.104 34.03,92.996 34.025,92.889 34.02,92.781 34.015,92.674 34.01,92.566 34.005,92.459 34.0,92.352 33.995,92.244 33.99,92.136 33.985,92.029 33.98,91.921 33.975,91.814 33.97,91.707 33.965,91.599 33.96,91.492 33.955,91.384 33.95,91.276 33.944,91.145 33.939,91.013 33.933,90.881 33.928,90.75 33.922,90.618 33.916,90.486 33.911,90.355 33.905,90.223 33.899,90.091 33.894,89.96 33.888,89.828 33.883,89.696 33.877,89.565 33.871,89.433 33.866,89.301 33.86,89.169 33.864,89.062 33.869,88.954 33.873,88.847 33.877,88.739 33.882,88.632 33.886,88.525 33.891,88.417 33.895,88.309 33.899,88.202 33.904,88.094 33.908,87.987 33.913,87.88 33.917,87.772 33.921,87.665 33.926,87.557 33.93,87.45 33.936,87.342 33.941,87.234 33.947,87.127 33.953,87.019 33.958,86.912 33.964,86.805 33.969,86.697 33.975,86.59 33.981,86.482 33.986,86.374 33.992,86.267 33.998,86.16 34.003,86.052 34.009,85.945 34.014,85.837 34.02,85.73 34.032,85.622 34.044,85.514 34.056,85.407 34.068,85.299 34.079,85.192 34.091,85.085 34.103,84.977 34.115,84.87 34.127,84.762 34.139,84.654 34.151,84.547 34.163,84.44 34.174,84.332 34.186,84.225 34.198,84.117 34.21,84.01 34.224,83.902 34.237,83.794 34.251,83.687 34.265,83.579 34.279,83.472 34.293,83.365 34.306,83.257 34.32,83.15 34.334,83.042 34.347,82.934 34.361,82.827 34.375,82.72 34.389,82.612 34.403,82.505 34.416,82.397 34.43,82.29 34.455,82.182 34.48,82.075 34.505,81.967 34.53,81.859 34.555,81.752 34.58,81.645 34.605,81.537 34.63,81.43 34.655,81.322 34.68,81.215 34.705,81.107 34.73,81.0 34.755,80.892 34.78,80.785 34.805,80.677 34.83,80.57 34.861,80.449 34.892,80.328 34.924,80.207 34.955,80.086 34.986,79.965 35.017,79.844 35.049,79.723 35.08,79.602 35.111,79.481 35.142,79.36 35.174,79.239 35.205,79.118 35.236,78.997 35.267,78.876 35.299,78.755 35.33,78.635 35.369,78.527 35.407,78.419 35.446,78.312 35.485,78.204 35.524,78.097 35.562,77.99 35.601,77.882 35.64,77.775 35.679,77.667 35.718,77.559 35.756,77.452 35.795,77.345 35.834,77.237 35.873,77.13 35.911,77.022 35.95,76.915 35.996,76.807 36.043,76.7 36.089,76.592 36.135,76.484 36.181,76.377 36.227,76.27 36.274,76.162 36.32,76.055 36.366,75.947 36.413,75.84 36.459,75.732 36.505,75.625 36.551,75.517 36.597,75.41 36.644,75.302 36.69,75.195 36.746,75.087 36.802,74.98 36.859,74.872 36.915,74.764 36.971,74.657 37.028,74.55 37.084,74.442 37.14,74.335 37.196,74.227 37.252,74.12 37.309,74.012 37.365,73.905 37.421,73.797 37.478,73.69 37.534,73.582 37.59,73.475 37.659,73.367 37.728,73.26 37.796,73.152 37.865,73.044 37.934,72.937 38.002,72.83 38.071,72.722 38.14,72.615 38.209,72.507 38.278,72.4 38.346,72.292 38.415,72.185 38.484,72.077 38.552,71.97 38.621,71.862 38.69,71.755 38.779,71.636 38.869,71.518 38.958,71.4 39.047,71.282 39.137,71.163 39.226,71.045 39.316,70.927 39.405,70.809 39.494,70.69 39.584,70.572 39.673,70.454 39.762,70.336 39.852,70.217 39.941,70.099 40.031,69.981 40.12,69.863 40.217,69.742 40.314,69.621 40.411,69.5 40.508,69.379 40.604,69.258 40.701,69.137 40.798,69.016 40.895,68.895 40.992,68.774 41.089,68.653 41.186,68.532 41.282,68.411 41.379,68.29 41.476,68.169 41.573,68.048" stroke="rgb(255,255,255)" stroke-width="4.25" fill="none" stroke-linecap="round" stroke-linejoin="round" /><polyline points="98.34,110.412 98.429,110.304 98.517,110.197 98.606,110.089 98.695,109.982 98.784,109.874 98.873,109.767 98.961,109.659 99.05,109.552 99.139,109.444 99.228,109.337 99.316,109.229 99.405,109.121 99.494,109.014 99.583,108.907 99.671,108.799 99.76,108.692 99.76,108.692 99.848,108.584 99.936,108.477 100.024,108.369 100.113,108.262 100.201,108.154 100.289,108.047 100.377,107.939 100.465,107.832 100.553,107.724 100.641,107.617 100.729,107.509 100.817,107.401 100.906,107.294 100.994,107.187 101.082,107.079 101.17,106.972 101.237,106.864 101.304,106.757 101.371,106.649 101.438,106.542 101.504,106.434 101.571,106.327 101.638,106.219 101.705,106.112 101.772,106.004 101.839,105.897 101.906,105.789 101.972,105.681 102.039,105.574 102.106,105.467 102.173,105.359 102.24,105.252 102.299,105.144 102.359,105.037 102.418,104.929 102.477,104.822 102.537,104.714 102.596,104.607 102.656,104.499 102.715,104.392 102.774,104.284 102.834,104.177 102.893,104.069 102.953,103.962 103.012,103.854 103.071,103.747 103.131,103.639 103.19,103.532 103.239,103.424 103.287,103.317 103.336,103.209 103.385,103.102 103.434,102.994 103.483,102.887 103.531,102.779 103.58,102.672 103.629,102.564 103.677,102.457 103.726,102.349 103.775,102.242 103.824,102.134 103.873,102.027 103.921,101.919 103.97,101.812 104.013,101.691 104.056,101.57 104.099,101.449 104.142,101.328 104.186,101.207 104.229,101.086 104.272,100.965 104.315,100.844 104.358,100.723 104.401,100.602 104.444,100.481 104.487,100.36 104.531,100.239 104.574,100.118 104.617,99.997 104.66,99.877 104.688,99.769 104.715,99.662 104.742,99.554 104.77,99.447 104.797,99.339 104.825,99.232 104.852,99.124 104.88,99.017 104.907,98.909 104.935,98.802 104.962,98.694 104.99,98.587 105.017,98.479 105.045,98.372 105.072,98.264 105.1,98.157 105.124,98.049 105.147,97.942 105.171,97.834 105.195,97.727 105.219,97.619 105.242,97.512 105.266,97.404 105.29,97.297 105.314,97.189 105.338,97.082 105.361,96.974 105.385,96.867 105.409,96.759 105.433,96.652 105.456,96.544 105.48,96.437 105.498,96.329 105.515,96.222 105.532,96.114 105.55,96.007 105.568,95.899 105.585,95.792 105.603,95.684 105.62,95.577 105.638,95.469 105.655,95.362 105.672,95.254 105.69,95.147 105.708,95.039 105.725,94.932 105.743,94.824 105.76,94.717 105.773,94.609 105.786,94.502 105.799,94.394 105.812,94.287 105.826,94.179 105.839,94.072 105.852,93.964 105.865,93.857 105.878,93.749 105.891,93.642 105.904,93.534 105.918,93.427 105.931,93.319 105.944,93.212 105.957,93.104 105.97,92.996 105.975,92.889 105.98,92.781 105.985,92.674 105.99,92.566 105.995,92.459 106.0,92.352 106.005,92.244 106.01,92.136 106.015,92.029 106.02,91.921 106.025,91.814 106.03,91.707 106.035,91.599 106.04,91.492 106.045,91.384 106.05,91.276 106.056,91.145 106.061,91.013 106.067,90.881 106.072,90.75 106.078,90.618 106.084,90.486 106.089,90.355 106.095,90.223 106.101,90.091 106.106,89.96 106.112,89.828 106.118,89.696 106.123,89.565 106.129,89.433 106.134,89.301 106.14,89.169 106.136,89.062 106.131,88.954 106.127,88.847 106.123,88.739 106.118,88.632 106.114,88.525 106.109,88.417 106.105,88.309 106.101,88.202 106.096,88.094 106.092,87.987 106.087,87.88 106.083,87.772 106.079,87.665 106.074,87.557 106.07,87.45 106.064,87.342 106.059,87.234 106.053,87.127 106.047,87.019 106.042,86.912 106.036,86.805 106.031,86.697 106.025,86.59 106.019,86.482 106.014,86.374 106.008,86.267 106.002,86.16 105.997,86.052 105.991,85.945 105.986,85.837 105.98,85.73 105.968,85.622 105.956,85.514 105.944,85.407 105.933,85.299 105.921,85.192 105.909,85.085 105.897,84.977 105.885,84.87 105.873,84.762 105.861,84.654 105.849,84.547 105.838,84.44 105.826,84.332 105.814,84.225 105.802,84.117 105.79,84.01 105.776,83.902 105.763,83.794 105.749,83.687 105.735,83.579 105.721,83.472 105.707,83.365 105.694,83.257 105.68,83.15 105.666,83.042 105.653,82.934 105.639,82.827 105.625,82.72 105.611,82.612 105.597,82.505 105.584,82.397 105.57,82.29 105.545,82.182 105.52,82.075 105.495,81.967 105.47,81.859 105.445,81.752 105.42,81.645 105.395,81.537 105.37,81.43 105.345,81.322 105.32,81.215 105.295,81.107 105.27,81.0 105.245,80.892 105.22,80.785 105.195,80.677 105.17,80.57 105.139,80.449 105.108,80.328 105.076,80.207 105.045,80.086 105.014,79.965 104.983,79.844 104.951,79.723 104.92,79.602 104.889,79.481 104.858,79.36 104.826,79.239 104.795,79.118 104.764,78.997 104.733,78.876 104.701,78.755 104.67,78.635 104.631,78.527 104.593,78.419 104.554,78.312 104.515,78.204 104.476,78.097 104.438,77.99 104.399,77.882 104.36,77.775 104.321,77.667 104.282,77.559 104.244,77.452 104.205,77.345 104.166,77.237 104.127,77.13 104.089,77.022 104.05,76.915 104.004,76.807 103.957,76.7 103.911,76.592 103.865,76.484 103.819,76.377 103.772,76.27 103.726,76.162 103.68,76.055 103.634,75.947 103.588,75.84 103.541,75.732 103.495,75.625 103.449,75.517 103.403,75.41 103.356,75.302 103.31,75.195 103.254,75.087 103.198,74.98 103.141,74.872 103.085,74.764 103.029,74.657 102.972,74.55 102.916,74.442 102.86,74.335 102.804,74.227 102.748,74.12 102.691,74.012 102.635,73.905 102.579,73.797 102.522,73.69 102.466,73.582 102.41,73.475 102.341,73.367 102.272,73.26 102.204,73.152 102.135,73.044 102.066,72.937 101.998,72.83 101.929,72.722 101.86,72.615 101.791,72.507 101.722,72.4 101.654,72.292 101.585,72.185 101.516,72.077 101.448,71.97 101.379,71.862 101.31,71.755 101.221,71.636 101.131,71.518 101.042,71.4 100.953,71.282 100.863,71.163 100.774,71.045 100.684,70.927 100.595,70.809 100.506,70.69 100.416,70.572 100.327,70.454 100.237,70.336 100.148,70.217 100.059,70.099 99.969,69.981 99.88,69.863 99.783,69.742 99.686,69.621 99.589,69.5 99.492,69.379 99.396,69.258 99.299,69.137 99.202,69.016 99.105,68.895 99.008,68.774 98.911,68.653 98.814,68.532 98.718,68.411 98.621,68.29 98.524,68.169 98.427,68.048" stroke="rgb(255,255,255)" stroke-width="4.25" fill="none" stroke-linecap="round" stroke-linejoin="round" /><text x="132.5" y="110.713" font-family="FondiNewCM" font-size="50" font-style="normal" text-anchor="middle" dominant-baseline="alphabetic" fill="rgb(255,255,255)">=</text><text x="195.5" y="44.713" font-family="FondiNewCM" font-size="50" font-style="normal" text-anchor="middle" dominant-baseline="alphabetic" fill="rgb(255,255,255)">2</text><text x="217.0" y="44.713" font-family="FondiNewCM" font-size="50" font-style="normal" text-anchor="middle" dominant-baseline="alphabetic" fill="rgb(255,255,255)">&#183;</text><text x="240.0" y="44.713" font-family="FondiNewCM" font-size="50" font-style="italic" text-anchor="middle" dominant-baseline="alphabetic" fill="rgb(255,255,255)">x</text><text x="319.5" y="43.713" font-family="FondiNewCM" font-size="50" font-style="normal" text-anchor="middle" dominant-baseline="alphabetic" fill="rgb(255,255,255)">10</text><text x="364.5" y="43.713" font-family="FondiNewCM" font-size="50" font-style="normal" text-anchor="middle" dominant-baseline="alphabetic" fill="rgb(255,255,255)">&gt;</text><text x="399.5" y="43.713" font-family="FondiNewCM" font-size="50" font-style="italic" text-anchor="middle" dominant-baseline="alphabetic" fill="rgb(255,255,255)">x</text><text x="213.0" y="104.963" font-family="FondiNewCM" font-size="50" font-style="normal" text-anchor="middle" dominant-baseline="alphabetic" fill="rgb(255,255,255)">2</text><text x="233.0" y="80.463" font-family="FondiNewCM" font-size="37" font-style="italic" text-anchor="middle" dominant-baseline="alphabetic" fill="rgb(255,255,255)">x</text><rect x="185.0" y="60.713" width="2" height="48" fill="rgb(255,255,255)" /><rect x="185.0" y="60.713" width="10" height="2" fill="rgb(255,255,255)" /><rect x="185.0" y="106.713" width="10" height="2" fill="rgb(255,255,255)" /><rect x="258.0" y="60.713" width="2" height="48" fill="rgb(255,255,255)" /><rect x="250.0" y="60.713" width="10" height="2" fill="rgb(255,255,255)" /><rect x="250.0" y="106.713" width="10" height="2" fill="rgb(255,255,255)" /><text x="319.5" y="106.713" font-family="FondiNewCM" font-size="50" font-style="normal" text-anchor="middle" dominant-baseline="alphabetic" fill="rgb(255,255,255)">10</text><text x="364.5" y="106.713" font-family="FondiNewCM" font-size="50" font-style="normal" text-anchor="middle" dominant-baseline="alphabetic" fill="rgb(255,255,255)">&lt;</text><text x="399.5" y="106.713" font-family="FondiNewCM" font-size="50" font-style="italic" text-anchor="middle" dominant-baseline="alphabetic" fill="rgb(255,255,255)">x</text><text x="193.0" y="148.713" font-family="FondiNewCM" font-size="37" font-style="normal" text-anchor="middle" dominant-baseline="alphabetic" fill="rgb(255,255,255)">1</text><text x="193.0" y="185.713" font-family="FondiNewCM" font-size="37" font-style="normal" text-anchor="middle" dominant-baseline="alphabetic" fill="rgb(255,255,255)">2</text><line x1="185.0" y1="154.713" x2="201.0" y2="154.713" stroke="rgb(255,255,255)" stroke-width="2" fill="none" /><text x="335.5" y="184.713" font-family="FondiNewCM" font-size="50" font-style="normal" text-anchor="middle" dominant-baseline="alphabetic" fill="rgb(255,255,255)">else</text><polyline points="175.2,196.013 174.921,195.588 174.642,195.162 174.364,194.738 174.085,194.312 173.806,193.888 173.528,193.463 173.249,193.037 172.97,192.613 172.691,192.188 172.412,191.763 172.134,191.338 171.855,190.912 171.576,190.488 171.298,190.062 171.019,189.638 170.74,189.213 170.74,189.213 170.584,188.7 170.428,188.188 170.271,187.675 170.115,187.162 169.959,186.65 169.803,186.138 169.646,185.625 169.49,185.113 169.334,184.6 169.178,184.088 169.021,183.575 168.865,183.062 168.709,182.55 168.553,182.038 168.396,181.525 168.24,181.013 168.186,180.488 168.132,179.963 168.079,179.438 168.025,178.912 167.971,178.388 167.918,177.863 167.864,177.338 167.81,176.812 167.756,176.287 167.702,175.762 167.649,175.238 167.595,174.713 167.541,174.188 167.488,173.662 167.434,173.137 167.38,172.613 167.379,172.088 167.377,171.562 167.376,171.037 167.375,170.512 167.374,169.988 167.373,169.463 167.371,168.938 167.37,168.412 167.369,167.887 167.368,167.363 167.366,166.838 167.365,166.312 167.364,165.788 167.363,165.262 167.361,164.738 167.36,164.213 167.36,163.688 167.36,163.163 167.36,162.637 167.36,162.113 167.36,161.588 167.36,161.062 167.36,160.538 167.36,160.012 167.36,159.488 167.36,158.963 167.36,158.438 167.36,157.913 167.36,157.387 167.36,156.863 167.36,156.338 167.36,155.812 167.36,155.288 167.36,154.763 167.36,154.238 167.36,153.713 167.36,153.188 167.36,152.663 167.36,152.138 167.36,151.613 167.36,151.088 167.36,150.562 167.36,150.038 167.36,149.513 167.36,148.988 167.36,148.463 167.36,147.938 167.36,147.413 167.36,146.888 167.36,146.363 167.36,145.838 167.36,145.312 167.36,144.788 167.36,144.262 167.36,143.738 167.36,143.213 167.36,142.688 167.36,142.163 167.36,141.637 167.36,141.113 167.36,140.588 167.36,140.062 167.36,139.537 167.36,139.012 167.36,138.488 167.36,137.963 167.36,137.438 167.36,136.912 167.36,136.387 167.36,135.863 167.36,135.338 167.36,134.812 167.36,134.287 167.36,133.762 167.36,133.238 167.36,132.713 167.36,132.188 167.36,131.662 167.36,131.137 167.36,130.613 167.36,130.087 167.36,129.562 167.36,129.037 167.36,128.512 167.36,127.987 167.36,127.463 167.36,126.938 167.36,126.412 167.36,125.888 167.36,125.362 167.36,124.838 167.36,124.312 167.36,123.788 167.36,123.263 167.36,122.738 167.36,122.213 167.34,121.688 167.32,121.163 167.3,120.638 167.28,120.113 167.26,119.588 167.24,119.062 167.22,118.538 167.2,118.013 167.18,117.487 167.16,116.963 167.14,116.438 167.12,115.912 167.1,115.388 167.08,114.862 167.06,114.338 167.04,113.812 166.95,113.287 166.86,112.763 166.77,112.237 166.68,111.713 166.59,111.188 166.5,110.662 166.41,110.138 166.32,109.612 166.23,109.087 166.14,108.562 166.05,108.037 165.96,107.512 165.87,106.987 165.78,106.462 165.69,105.938 165.6,105.412 165.303,104.938 165.005,104.462 164.707,103.987 164.41,103.512 164.113,103.037 163.815,102.562 163.517,102.087 163.22,101.612 162.923,101.138 162.625,100.662 162.327,100.188 162.03,99.713 161.733,99.237 161.435,98.763 161.137,98.287 160.84,97.812 161.105,97.287 161.37,96.763 161.635,96.237 161.9,95.713 162.165,95.188 162.43,94.662 162.695,94.138 162.96,93.612 163.225,93.087 163.49,92.562 163.755,92.037 164.02,91.512 164.285,90.987 164.55,90.462 164.815,89.938 165.08,89.412 165.193,88.887 165.305,88.362 165.418,87.837 165.53,87.312 165.643,86.787 165.755,86.263 165.868,85.737 165.98,85.213 166.093,84.688 166.205,84.162 166.317,83.638 166.43,83.112 166.542,82.588 166.655,82.062 166.767,81.538 166.88,81.013 166.907,80.487 166.935,79.963 166.963,79.438 166.99,78.913 167.017,78.388 167.045,77.863 167.072,77.338 167.1,76.812 167.127,76.288 167.155,75.763 167.183,75.238 167.21,74.713 167.237,74.188 167.265,73.663 167.292,73.138 167.32,72.613 167.322,72.088 167.325,71.563 167.327,71.038 167.33,70.513 167.333,69.988 167.335,69.463 167.338,68.938 167.34,68.412 167.343,67.888 167.345,67.363 167.347,66.838 167.35,66.312 167.353,65.787 167.355,65.263 167.358,64.738 167.36,64.213 167.36,63.688 167.36,63.162 167.36,62.638 167.36,62.113 167.36,61.588 167.36,61.062 167.36,60.537 167.36,60.013 167.36,59.488 167.36,58.963 167.36,58.438 167.36,57.912 167.36,57.387 167.36,56.863 167.36,56.338 167.36,55.812 167.36,55.287 167.36,54.762 167.36,54.238 167.36,53.713 167.36,53.188 167.36,52.662 167.36,52.137 167.36,51.612 167.36,51.088 167.36,50.562 167.36,50.037 167.36,49.512 167.36,48.987 167.36,48.463 167.36,47.938 167.36,47.412 167.36,46.887 167.36,46.362 167.36,45.838 167.36,45.312 167.36,44.787 167.36,44.262 167.36,43.737 167.36,43.213 167.36,42.688 167.36,42.162 167.36,41.637 167.36,41.112 167.36,40.587 167.36,40.062 167.36,39.537 167.36,39.012 167.36,38.487 167.36,37.963 167.36,37.438 167.36,36.912 167.36,36.387 167.36,35.862 167.36,35.338 167.36,34.812 167.36,34.287 167.36,33.763 167.36,33.238 167.36,32.713 167.36,32.188 167.36,31.662 167.36,31.138 167.36,30.613 167.361,30.088 167.363,29.562 167.364,29.038 167.365,28.513 167.366,27.988 167.368,27.463 167.369,26.938 167.37,26.412 167.371,25.888 167.373,25.363 167.374,24.838 167.375,24.312 167.376,23.787 167.377,23.263 167.379,22.738 167.38,22.213 167.416,21.963 167.452,21.713 167.489,21.463 167.525,21.213 167.561,20.963 167.597,20.713 167.634,20.463 167.67,20.213 167.706,19.963 167.743,19.713 167.779,19.463 167.815,19.213 167.851,18.963 167.888,18.713 167.924,18.463 167.96,18.213 168.086,17.688 168.213,17.162 168.339,16.638 168.465,16.113 168.591,15.588 168.718,15.062 168.844,14.537 168.97,14.013 169.096,13.488 169.222,12.963 169.349,12.438 169.475,11.912 169.601,11.387 169.727,10.863 169.854,10.338 169.98,9.812 170.299,9.3 170.617,8.787 170.936,8.275 171.255,7.763 171.574,7.25 171.892,6.738 172.211,6.225 172.53,5.713 172.849,5.2 173.167,4.688 173.486,4.175 173.805,3.662 174.124,3.15 174.442,2.638 174.761,2.125" stroke="rgb(255,255,255)" stroke-width="4.25" fill="none" stroke-linecap="round" stroke-linejoin="round" /></g></svg>