<?xml version="1.0" encoding="UTF-8"?>
<svg xmlns="http://www.w3.org/2000/svg" width="273.0" height="87.5" viewBox="0 0 273.0 87.5"><defs><style>@font-face { font-family: 'FondiNewCM'; font-style: normal; src: url('fonts/NewCM10-Regular.otf') format('opentype'); }
@font-face { font-family: 'FondiNewCM'; font-style: italic; src: url('fonts/NewCM10-Italic.otf') format('opentype'); }</style></defs><g><text x="12.0" y="53.0" font-family="FondiNewCM" font-size="50" font-style="italic" text-anchor="middle" dominant-baseline="alphabetic" fill="rgb(255,255,255)">x</text><ellipse cx="12.0" cy="20.0" rx="5.0" ry="5.0" fill="rgb(255,255,255)" /><ellipse cx="12.0" cy="5.0" rx="5.0" ry="5.0" fill="rgb(255,255,255)" /><text x="49.0" y="54.0" font-family="FondiNewCM" font-size="50" font-style="normal" text-anchor="middle" dominant-baseline="alphabetic" fill="rgb(255,255,255)">+</text><text x="85.5" y="53.0" font-family="FondiNewCM" font-size="50" font-style="italic" text-anchor="middle" dominant-baseline="alphabetic" fill="rgb(255,255,255)">a</text><text x="105.5" y="82.0" font-family="FondiNewCM" font-size="37" font-style="italic" text-anchor="middle" dominant-baseline="alphabetic" fill="rgb(255,255,255)">k</text><text x="120.0" y="87.5" font-family="FondiNewCM" font-size="27" font-style="italic" text-anchor="middle" dominant-baseline="alphabetic" fill="rgb(255,255,255)">v</text><polyline points="97.0,51.0 98.0,52.0 99.0,53.0 100.0,53.0 101.0,53.0 102.0,53.0 103.0,52.0 104.0,51.0 105.0,50.0 106.0,49.0 107.0,49.0 108.0,49.0 109.0,49.0 110.0,50.0 111.0,51.0 112.0,52.0 113.0,53.0 114.0,53.0 115.0,53.0 116.0,53.0 117.0,52.0 118.0,51.0 119.0,50.0 120.0,49.0 121.0,49.0 122.0,49.0 123.0,49.0 124.0,50.0 125.0,51.0" stroke="rgb(255,255,255)" stroke-width="3" fill="none" stroke-linecap="round" stroke-linejoin="round" /><text x="151.0" y="54.0" font-family="FondiNewCM" font-size="50" font-style="normal" text-anchor="middle" dominant-baseline="alphabetic" fill="rgb(255,255,255)">+</text><text x="186.5" y="53.0" font-family="FondiNewCM" font-size="50" font-style="italic" text-anchor="middle" dominant-baseline="alphabetic" fill="rgb(255,255,255)">z</text><polyline points="176.0,20.0 177.0,21.0 178.0,22.0 179.0,23.0 180.0,24.0 181.0,24.0 182.0,24.0 183.0,23.0 184.0,22.0 185.0,21.0 186.0,20.0 187.0,19.0 188.0,18.0 189.0,17.0 190.0,16.0 191.0,16.0 192.0,16.0 193.0,17.0 194.0,18.0 195.0,19.0 196.0,20.0" stroke="rgb(255,255,255)" stroke-width="5" fill="none" stroke-linecap="round" stroke-linejoin="round" /><text x="222.0" y="54.0" font-family="FondiNewCM" font-size="50" font-style="normal" text-anchor="middle" dominant-baseline="alphabetic" fill="rgb(255,255,255)">+</text><text x="258.5" y="53.0" font-family="FondiNewCM" font-size="50" font-style="italic" text-anchor="middle" dominant-baseline="alphabetic" fill="rgb(255,255,255)">a</text><line x1="247.0" y1="25.0" x2="270.0" y2="25.0" stroke="rgb(255,255,255)" stroke-width="5" fill="none" /></g></svg>