<?xml version="1.0" encoding="UTF-8"?>
<svg xmlns="http://www.w3.org/2000/svg" width="354.0" height="49.031" viewBox="0 0 354.0 49.031"><defs><style>@font-face { font-family: 'FondiNewCM'; font-style: normal; src: url('fonts/NewCM10-Regular.otf') format('opentype'); }
@font-face { font-family: 'FondiNewCM'; font-style: italic; src: url('fonts/NewCM10-Italic.otf') format('opentype'); }</style></defs><g><text x="29.5" y="44.031" font-family="FondiNewCM" font-size="50" font-style="italic" text-anchor="middle" dominant-baseline="alphabetic" fill="rgb(255,255,255)">x</text><text x="49.5" y="27.031" font-family="FondiNewCM" font-size="37" font-style="normal" text-anchor="middle" dominant-baseline="alphabetic" fill="rgb(255,255,255)">2</text><text x="72.0" y="45.031" font-family="FondiNewCM" font-size="50" font-style="normal" text-anchor="middle" dominant-baseline="alphabetic" fill="rgb(255,255,255)">-</text><text x="97.0" y="45.031" font-family="FondiNewCM" font-size="50" font-style="normal" text-anchor="middle" dominant-baseline="alphabetic" fill="rgb(255,255,255)">9</text><polyline points="9.16,45.473 9.071,45.363 8.982,45.253 8.894,45.143 8.805,45.033 8.716,44.923 8.627,44.813 8.539,44.703 8.45,44.593 8.361,44.483 8.273,44.373 8.184,44.263 8.095,44.153 8.006,44.043 7.918,43.933 7.829,43.823 7.74,43.713 7.74,43.713 7.652,43.603 7.564,43.493 7.476,43.383 7.388,43.273 7.299,43.163 7.211,43.053 7.123,42.943 7.035,42.833 6.947,42.723 6.859,42.613 6.771,42.503 6.683,42.393 6.594,42.283 6.506,42.173 6.418,42.063 6.33,41.953 6.263,41.843 6.196,41.733 6.129,41.623 6.062,41.513 5.996,41.403 5.929,41.293 5.862,41.183 5.795,41.073 5.728,40.963 5.661,40.853 5.594,40.743 5.527,40.633 5.461,40.523 5.394,40.413 5.327,40.303 5.26,40.193 5.201,40.083 5.141,39.973 5.082,39.863 5.022,39.753 4.963,39.643 4.904,39.533 4.844,39.423 4.785,39.313 4.726,39.203 4.666,39.093 4.607,38.983 4.547,38.873 4.488,38.763 4.429,38.653 4.369,38.543 4.31,38.433 4.261,38.323 4.212,38.213 4.164,38.103 4.115,37.993 4.066,37.883 4.018,37.773 3.969,37.663 3.92,37.553 3.871,37.443 3.822,37.333 3.774,37.223 3.725,37.113 3.676,37.003 3.627,36.893 3.579,36.783 3.53,36.673 3.487,36.55 3.444,36.426 3.401,36.302 3.357,36.178 3.314,36.055 3.271,35.931 3.228,35.807 3.185,35.683 3.142,35.559 3.099,35.436 3.056,35.312 3.012,35.188 2.969,35.065 2.926,34.941 2.883,34.817 2.84,34.693 2.812,34.583 2.785,34.473 2.757,34.363 2.73,34.253 2.702,34.143 2.675,34.033 2.647,33.923 2.62,33.813 2.592,33.703 2.565,33.593 2.537,33.483 2.51,33.373 2.482,33.263 2.455,33.153 2.427,33.043 2.4,32.933 2.376,32.823 2.353,32.713 2.329,32.603 2.305,32.493 2.281,32.383 2.257,32.273 2.234,32.163 2.21,32.053 2.186,31.943 2.163,31.833 2.139,31.723 2.115,31.613 2.091,31.503 2.067,31.393 2.044,31.283 2.02,31.173 2.002,31.063 1.985,30.953 1.968,30.843 1.95,30.733 1.932,30.623 1.915,30.513 1.897,30.403 1.88,30.293 1.862,30.183 1.845,30.073 1.827,29.963 1.81,29.853 1.792,29.743 1.775,29.633 1.757,29.523 1.74,29.413 1.727,29.303 1.714,29.193 1.701,29.083 1.687,28.973 1.674,28.863 1.661,28.753 1.648,28.643 1.635,28.533 1.622,28.423 1.609,28.313 1.596,28.203 1.583,28.093 1.569,27.983 1.556,27.873 1.543,27.763 1.53,27.653 1.525,27.543 1.52,27.433 1.515,27.323 1.51,27.213 1.505,27.103 1.5,26.993 1.495,26.883 1.49,26.773 1.485,26.663 1.48,26.553 1.475,26.443 1.47,26.333 1.465,26.223 1.46,26.113 1.455,26.003 1.45,25.893 1.444,25.759 1.439,25.624 1.433,25.489 1.427,25.354 1.422,25.22 1.416,25.085 1.411,24.95 1.405,24.815 1.399,24.681 1.394,24.546 1.388,24.411 1.383,24.276 1.377,24.142 1.371,24.007 1.366,23.872 1.36,23.737 1.364,23.627 1.369,23.517 1.373,23.407 1.377,23.297 1.382,23.187 1.386,23.077 1.391,22.967 1.395,22.857 1.399,22.747 1.404,22.637 1.408,22.527 1.413,22.417 1.417,22.307 1.421,22.197 1.426,22.087 1.43,21.977 1.436,21.867 1.441,21.757 1.447,21.647 1.452,21.537 1.458,21.427 1.464,21.317 1.469,21.207 1.475,21.097 1.481,20.987 1.486,20.877 1.492,20.767 1.498,20.657 1.503,20.547 1.509,20.437 1.514,20.327 1.52,20.217 1.532,20.107 1.544,19.997 1.556,19.887 1.568,19.777 1.579,19.667 1.591,19.557 1.603,19.447 1.615,19.337 1.627,19.227 1.639,19.117 1.651,19.007 1.663,18.897 1.674,18.787 1.686,18.677 1.698,18.567 1.71,18.457 1.724,18.347 1.738,18.237 1.751,18.127 1.765,18.017 1.779,17.907 1.793,17.797 1.806,17.687 1.82,17.577 1.834,17.467 1.848,17.357 1.861,17.247 1.875,17.137 1.889,17.027 1.903,16.917 1.916,16.807 1.93,16.697 1.955,16.587 1.98,16.477 2.005,16.367 2.03,16.257 2.055,16.147 2.08,16.037 2.105,15.927 2.13,15.817 2.155,15.707 2.18,15.597 2.205,15.487 2.23,15.377 2.255,15.267 2.28,15.157 2.305,15.047 2.33,14.937 2.361,14.814 2.393,14.69 2.424,14.566 2.455,14.442 2.486,14.319 2.518,14.195 2.549,14.071 2.58,13.947 2.611,13.824 2.642,13.7 2.674,13.576 2.705,13.452 2.736,13.329 2.767,13.205 2.799,13.081 2.83,12.957 2.869,12.847 2.907,12.737 2.946,12.627 2.985,12.517 3.024,12.407 3.062,12.297 3.101,12.187 3.14,12.077 3.179,11.967 3.217,11.857 3.256,11.747 3.295,11.637 3.334,11.527 3.372,11.417 3.411,11.307 3.45,11.197 3.496,11.087 3.542,10.977 3.589,10.867 3.635,10.757 3.681,10.647 3.727,10.537 3.774,10.427 3.82,10.317 3.866,10.207 3.912,10.097 3.959,9.987 4.005,9.877 4.051,9.767 4.097,9.657 4.144,9.547 4.19,9.437 4.246,9.327 4.302,9.217 4.359,9.107 4.415,8.997 4.471,8.887 4.527,8.777 4.584,8.667 4.64,8.557 4.696,8.447 4.752,8.337 4.809,8.227 4.865,8.117 4.921,8.007 4.978,7.897 5.034,7.787 5.09,7.677 5.159,7.567 5.228,7.457 5.296,7.347 5.365,7.237 5.434,7.127 5.502,7.017 5.571,6.907 5.64,6.797 5.709,6.687 5.777,6.577 5.846,6.467 5.915,6.357 5.984,6.247 6.052,6.137 6.121,6.027 6.19,5.917 6.279,5.796 6.369,5.675 6.458,5.554 6.547,5.433 6.637,5.312 6.726,5.191 6.816,5.07 6.905,4.949 6.994,4.828 7.084,4.707 7.173,4.586 7.263,4.465 7.352,4.344 7.441,4.223 7.531,4.102 7.62,3.981 7.717,3.858 7.814,3.734 7.911,3.61 8.008,3.486 8.104,3.363 8.201,3.239 8.298,3.115 8.395,2.991 8.492,2.867 8.589,2.744 8.686,2.62 8.783,2.496 8.879,2.373 8.976,2.249 9.073,2.125" stroke="rgb(255,255,255)" stroke-width="4.25" fill="none" stroke-linecap="round" stroke-linejoin="round" /><polyline points="115.84,45.473 115.929,45.363 116.017,45.253 116.106,45.143 116.195,45.033 116.284,44.923 116.373,44.813 116.461,44.703 116.55,44.593 116.639,44.483 116.728,44.373 116.816,44.263 116.905,44.153 116.994,44.043 117.083,43.933 117.171,43.823 117.26,43.713 117.26,43.713 117.348,43.603 117.436,43.493 117.524,43.383 117.613,43.273 117.701,43.163 117.789,43.053 117.877,42.943 117.965,42.833 118.053,42.723 118.141,42.613 118.229,42.503 118.317,42.393 118.406,42.283 118.494,42.173 118.582,42.063 118.67,41.953 118.737,41.843 118.804,41.733 118.871,41.623 118.938,41.513 119.004,41.403 119.071,41.293 119.138,41.183 119.205,41.073 119.272,40.963 119.339,40.853 119.406,40.743 119.472,40.633 119.539,40.523 119.606,40.413 119.673,40.303 119.74,40.193 119.799,40.083 119.859,39.973 119.918,39.863 119.977,39.753 120.037,39.643 120.096,39.533 120.156,39.423 120.215,39.313 120.274,39.203 120.334,39.093 120.393,38.983 120.453,38.873 120.512,38.763 120.571,38.653 120.631,38.543 120.69,38.433 120.739,38.323 120.787,38.213 120.836,38.103 120.885,37.993 120.934,37.883 120.983,37.773 121.031,37.663 121.08,37.553 121.129,37.443 121.177,37.333 121.226,37.223 121.275,37.113 121.324,37.003 121.373,36.893 121.421,36.783 121.47,36.673 121.513,36.55 121.556,36.426 121.599,36.302 121.642,36.178 121.686,36.055 121.729,35.931 121.772,35.807 121.815,35.683 121.858,35.559 121.901,35.436 121.944,35.312 121.987,35.188 122.031,35.065 122.074,34.941 122.117,34.817 122.16,34.693 122.188,34.583 122.215,34.473 122.242,34.363 122.27,34.253 122.297,34.143 122.325,34.033 122.352,33.923 122.38,33.813 122.407,33.703 122.435,33.593 122.462,33.483 122.49,33.373 122.517,33.263 122.545,33.153 122.572,33.043 122.6,32.933 122.624,32.823 122.647,32.713 122.671,32.603 122.695,32.493 122.719,32.383 122.742,32.273 122.766,32.163 122.79,32.053 122.814,31.943 122.838,31.833 122.861,31.723 122.885,31.613 122.909,31.503 122.933,31.393 122.956,31.283 122.98,31.173 122.998,31.063 123.015,30.953 123.032,30.843 123.05,30.733 123.068,30.623 123.085,30.513 123.103,30.403 123.12,30.293 123.138,30.183 123.155,30.073 123.172,29.963 123.19,29.853 123.208,29.743 123.225,29.633 123.243,29.523 123.26,29.413 123.273,29.303 123.286,29.193 123.299,29.083 123.312,28.973 123.326,28.863 123.339,28.753 123.352,28.643 123.365,28.533 123.378,28.423 123.391,28.313 123.404,28.203 123.418,28.093 123.431,27.983 123.444,27.873 123.457,27.763 123.47,27.653 123.475,27.543 123.48,27.433 123.485,27.323 123.49,27.213 123.495,27.103 123.5,26.993 123.505,26.883 123.51,26.773 123.515,26.663 123.52,26.553 123.525,26.443 123.53,26.333 123.535,26.223 123.54,26.113 123.545,26.003 123.55,25.893 123.556,25.759 123.561,25.624 123.567,25.489 123.572,25.354 123.578,25.22 123.584,25.085 123.589,24.95 123.595,24.815 123.601,24.681 123.606,24.546 123.612,24.411 123.618,24.276 123.623,24.142 123.629,24.007 123.634,23.872 123.64,23.737 123.636,23.627 123.631,23.517 123.627,23.407 123.623,23.297 123.618,23.187 123.614,23.077 123.609,22.967 123.605,22.857 123.601,22.747 123.596,22.637 123.592,22.527 123.587,22.417 123.583,22.307 123.579,22.197 123.574,22.087 123.57,21.977 123.564,21.867 123.559,21.757 123.553,21.647 123.547,21.537 123.542,21.427 123.536,21.317 123.531,21.207 123.525,21.097 123.519,20.987 123.514,20.877 123.508,20.767 123.502,20.657 123.497,20.547 123.491,20.437 123.486,20.327 123.48,20.217 123.468,20.107 123.456,19.997 123.444,19.887 123.433,19.777 123.421,19.667 123.409,19.557 123.397,19.447 123.385,19.337 123.373,19.227 123.361,19.117 123.349,19.007 123.338,18.897 123.326,18.787 123.314,18.677 123.302,18.567 123.29,18.457 123.276,18.347 123.263,18.237 123.249,18.127 123.235,18.017 123.221,17.907 123.207,17.797 123.194,17.687 123.18,17.577 123.166,17.467 123.153,17.357 123.139,17.247 123.125,17.137 123.111,17.027 123.097,16.917 123.084,16.807 123.07,16.697 123.045,16.587 123.02,16.477 122.995,16.367 122.97,16.257 122.945,16.147 122.92,16.037 122.895,15.927 122.87,15.817 122.845,15.707 122.82,15.597 122.795,15.487 122.77,15.377 122.745,15.267 122.72,15.157 122.695,15.047 122.67,14.937 122.639,14.814 122.608,14.69 122.576,14.566 122.545,14.442 122.514,14.319 122.483,14.195 122.451,14.071 122.42,13.947 122.389,13.824 122.358,13.7 122.326,13.576 122.295,13.452 122.264,13.329 122.233,13.205 122.201,13.081 122.17,12.957 122.131,12.847 122.093,12.737 122.054,12.627 122.015,12.517 121.976,12.407 121.938,12.297 121.899,12.187 121.86,12.077 121.821,11.967 121.782,11.857 121.744,11.747 121.705,11.637 121.666,11.527 121.627,11.417 121.589,11.307 121.55,11.197 121.504,11.087 121.457,10.977 121.411,10.867 121.365,10.757 121.319,10.647 121.272,10.537 121.226,10.427 121.18,10.317 121.134,10.207 121.088,10.097 121.041,9.987 120.995,9.877 120.949,9.767 120.903,9.657 120.856,9.547 120.81,9.437 120.754,9.327 120.698,9.217 120.641,9.107 120.585,8.997 120.529,8.887 120.472,8.777 120.416,8.667 120.36,8.557 120.304,8.447 120.248,8.337 120.191,8.227 120.135,8.117 120.079,8.007 120.022,7.897 119.966,7.787 119.91,7.677 119.841,7.567 119.772,7.457 119.704,7.347 119.635,7.237 119.566,7.127 119.498,7.017 119.429,6.907 119.36,6.797 119.291,6.687 119.222,6.577 119.154,6.467 119.085,6.357 119.016,6.247 118.948,6.137 118.879,6.027 118.81,5.917 118.721,5.796 118.631,5.675 118.542,5.554 118.453,5.433 118.363,5.312 118.274,5.191 118.184,5.07 118.095,4.949 118.006,4.828 117.916,4.707 117.827,4.586 117.737,4.465 117.648,4.344 117.559,4.223 117.469,4.102 117.38,3.981 117.283,3.858 117.186,3.734 117.089,3.61 116.992,3.486 116.896,3.363 116.799,3.239 116.702,3.115 116.605,2.991 116.508,2.867 116.411,2.744 116.314,2.62 116.218,2.496 116.121,2.373 116.024,2.249 115.927,2.125" stroke="rgb(255,255,255)" stroke-width="4.25" fill="none" stroke-linecap="round" stroke-linejoin="round" /><text x="136.0" y="46.531" font-family="FondiNewCM" font-size="50" font-style="normal" text-anchor="middle" dominant-baseline="alphabetic" fill="rgb(255,255,255)">&#183;</text><text x="176.5" y="45.031" font-family="FondiNewCM" font-size="50" font-style="italic" text-anchor="middle" dominant-baseline="alphabetic" fill="rgb(255,255,255)">x</text><text x="213.5" y="45.031" font-family="FondiNewCM" font-size="50" font-style="normal" text-anchor="middle" dominant-baseline="alphabetic" fill="rgb(255,255,255)">+</text><text x="250.0" y="45.031" font-family="FondiNewCM" font-size="50" font-style="normal" text-anchor="middle" dominant-baseline="alphabetic" fill="rgb(255,255,255)">4</text><polyline points="156.16,47.765 156.071,47.67 155.982,47.575 155.894,47.48 155.805,47.385 155.716,47.29 155.627,47.195 155.539,47.1 155.45,47.005 155.361,46.91 155.273,46.815 155.184,46.72 155.095,46.625 155.006,46.53 154.918,46.435 154.829,46.34 154.74,46.245 154.74,46.245 154.652,46.15 154.564,46.055 154.476,45.96 154.388,45.865 154.299,45.77 154.211,45.675 154.123,45.58 154.035,45.485 153.947,45.39 153.859,45.295 153.771,45.2 153.683,45.105 153.594,45.01 153.506,44.915 153.418,44.82 153.33,44.725 153.263,44.63 153.196,44.535 153.129,44.44 153.062,44.345 152.996,44.25 152.929,44.155 152.862,44.06 152.795,43.965 152.728,43.87 152.661,43.775 152.594,43.68 152.528,43.585 152.461,43.49 152.394,43.395 152.327,43.3 152.26,43.205 152.201,43.11 152.141,43.015 152.082,42.92 152.022,42.825 151.963,42.73 151.904,42.635 151.844,42.54 151.785,42.445 151.726,42.35 151.666,42.255 151.607,42.16 151.548,42.065 151.488,41.97 151.429,41.875 151.369,41.78 151.31,41.685 151.261,41.59 151.213,41.495 151.164,41.4 151.115,41.305 151.066,41.21 151.018,41.115 150.969,41.02 150.92,40.925 150.871,40.83 150.822,40.735 150.774,40.64 150.725,40.545 150.676,40.45 150.627,40.355 150.579,40.26 150.53,40.165 150.487,40.058 150.444,39.952 150.401,39.845 150.358,39.738 150.314,39.631 150.271,39.524 150.228,39.417 150.185,39.31 150.142,39.203 150.099,39.096 150.056,38.99 150.012,38.883 149.969,38.776 149.926,38.669 149.883,38.562 149.84,38.455 149.812,38.36 149.785,38.265 149.757,38.17 149.73,38.075 149.703,37.98 149.675,37.885 149.648,37.79 149.62,37.695 149.593,37.6 149.565,37.505 149.537,37.41 149.51,37.315 149.483,37.22 149.455,37.125 149.428,37.03 149.4,36.935 149.376,36.84 149.353,36.745 149.329,36.65 149.305,36.555 149.281,36.46 149.257,36.365 149.234,36.27 149.21,36.175 149.186,36.08 149.163,35.985 149.139,35.89 149.115,35.795 149.091,35.7 149.067,35.605 149.044,35.51 149.02,35.415 149.002,35.32 148.985,35.225 148.968,35.13 148.95,35.035 148.933,34.94 148.915,34.845 148.898,34.75 148.88,34.655 148.863,34.56 148.845,34.465 148.828,34.37 148.81,34.275 148.793,34.18 148.775,34.085 148.758,33.99 148.74,33.895 148.727,33.8 148.714,33.705 148.701,33.61 148.688,33.515 148.674,33.42 148.661,33.325 148.648,33.23 148.635,33.135 148.622,33.04 148.609,32.945 148.596,32.85 148.583,32.755 148.569,32.66 148.556,32.565 148.543,32.47 148.53,32.375 148.525,32.28 148.52,32.185 148.515,32.09 148.51,31.995 148.505,31.9 148.5,31.805 148.495,31.71 148.49,31.615 148.485,31.52 148.48,31.425 148.475,31.33 148.47,31.235 148.465,31.14 148.46,31.045 148.455,30.95 148.45,30.855 148.444,30.739 148.439,30.622 148.433,30.506 148.428,30.39 148.422,30.273 148.416,30.157 148.411,30.041 148.405,29.924 148.399,29.808 148.394,29.691 148.388,29.575 148.382,29.459 148.377,29.342 148.371,29.226 148.366,29.11 148.36,28.993 148.364,28.898 148.369,28.803 148.373,28.708 148.377,28.613 148.382,28.518 148.386,28.423 148.391,28.328 148.395,28.233 148.399,28.138 148.404,28.043 148.408,27.948 148.413,27.853 148.417,27.758 148.421,27.663 148.426,27.568 148.43,27.473 148.436,27.378 148.441,27.283 148.447,27.188 148.453,27.093 148.458,26.998 148.464,26.903 148.469,26.808 148.475,26.713 148.481,26.618 148.486,26.523 148.492,26.428 148.498,26.333 148.503,26.238 148.509,26.143 148.514,26.048 148.52,25.953 148.532,25.858 148.544,25.763 148.556,25.668 148.567,25.573 148.579,25.478 148.591,25.383 148.603,25.288 148.615,25.193 148.627,25.098 148.639,25.003 148.651,24.908 148.663,24.813 148.674,24.718 148.686,24.623 148.698,24.528 148.71,24.433 148.724,24.338 148.738,24.243 148.751,24.148 148.765,24.053 148.779,23.958 148.793,23.863 148.806,23.768 148.82,23.673 148.834,23.578 148.847,23.483 148.861,23.388 148.875,23.293 148.889,23.198 148.903,23.103 148.916,23.008 148.93,22.913 148.955,22.818 148.98,22.723 149.005,22.628 149.03,22.533 149.055,22.438 149.08,22.343 149.105,22.248 149.13,22.153 149.155,22.058 149.18,21.963 149.205,21.868 149.23,21.773 149.255,21.678 149.28,21.583 149.305,21.488 149.33,21.393 149.361,21.286 149.393,21.18 149.424,21.073 149.455,20.966 149.486,20.859 149.518,20.752 149.549,20.645 149.58,20.538 149.611,20.431 149.643,20.325 149.674,20.218 149.705,20.111 149.736,20.004 149.768,19.897 149.799,19.79 149.83,19.683 149.869,19.588 149.907,19.493 149.946,19.398 149.985,19.303 150.024,19.208 150.062,19.113 150.101,19.018 150.14,18.923 150.179,18.828 150.218,18.733 150.256,18.638 150.295,18.543 150.334,18.448 150.373,18.353 150.411,18.258 150.45,18.163 150.496,18.068 150.542,17.973 150.589,17.878 150.635,17.783 150.681,17.688 150.727,17.593 150.774,17.498 150.82,17.403 150.866,17.308 150.912,17.213 150.959,17.118 151.005,17.023 151.051,16.928 151.097,16.833 151.144,16.738 151.19,16.643 151.246,16.548 151.303,16.453 151.359,16.358 151.415,16.263 151.471,16.168 151.528,16.073 151.584,15.978 151.64,15.883 151.696,15.788 151.752,15.693 151.809,15.598 151.865,15.503 151.921,15.408 151.977,15.313 152.034,15.218 152.09,15.123 152.159,15.028 152.227,14.933 152.296,14.838 152.365,14.743 152.434,14.648 152.502,14.553 152.571,14.458 152.64,14.363 152.709,14.268 152.778,14.173 152.846,14.078 152.915,13.983 152.984,13.888 153.053,13.793 153.121,13.698 153.19,13.603 153.279,13.499 153.369,13.394 153.458,13.29 153.548,13.185 153.637,13.081 153.726,12.976 153.816,12.872 153.905,12.767 153.994,12.663 154.084,12.558 154.173,12.454 154.262,12.349 154.352,12.245 154.441,12.14 154.531,12.036 154.62,11.931 154.717,11.824 154.814,11.718 154.911,11.611 155.007,11.504 155.104,11.397 155.201,11.29 155.298,11.183 155.395,11.076 155.492,10.969 155.589,10.862 155.686,10.756 155.782,10.649 155.879,10.542 155.976,10.435 156.073,10.328" stroke="rgb(255,255,255)" stroke-width="4.25" fill="none" stroke-linecap="round" stroke-linejoin="round" /><polyline points="269.84,47.765 269.929,47.67 270.017,47.575 270.106,47.48 270.195,47.385 270.284,47.29 270.373,47.195 270.461,47.1 270.55,47.005 270.639,46.91 270.727,46.815 270.816,46.72 270.905,46.625 270.994,46.53 271.082,46.435 271.171,46.34 271.26,46.245 271.26,46.245 271.348,46.15 271.436,46.055 271.524,45.96 271.613,45.865 271.701,45.77 271.789,45.675 271.877,45.58 271.965,45.485 272.053,45.39 272.141,45.295 272.229,45.2 272.317,45.105 272.406,45.01 272.494,44.915 272.582,44.82 272.67,44.725 272.737,44.63 272.804,44.535 272.871,44.44 272.938,44.345 273.004,44.25 273.071,44.155 273.138,44.06 273.205,43.965 273.272,43.87 273.339,43.775 273.406,43.68 273.473,43.585 273.539,43.49 273.606,43.395 273.673,43.3 273.74,43.205 273.799,43.11 273.859,43.015 273.918,42.92 273.978,42.825 274.037,42.73 274.096,42.635 274.156,42.54 274.215,42.445 274.274,42.35 274.334,42.255 274.393,42.16 274.452,42.065 274.512,41.97 274.571,41.875 274.631,41.78 274.69,41.685 274.739,41.59 274.788,41.495 274.836,41.4 274.885,41.305 274.934,41.21 274.983,41.115 275.031,41.02 275.08,40.925 275.129,40.83 275.178,40.735 275.226,40.64 275.275,40.545 275.324,40.45 275.373,40.355 275.421,40.26 275.47,40.165 275.513,40.058 275.556,39.952 275.599,39.845 275.643,39.738 275.686,39.631 275.729,39.524 275.772,39.417 275.815,39.31 275.858,39.203 275.901,39.096 275.944,38.99 275.988,38.883 276.031,38.776 276.074,38.669 276.117,38.562 276.16,38.455 276.188,38.36 276.215,38.265 276.243,38.17 276.27,38.075 276.298,37.98 276.325,37.885 276.353,37.79 276.38,37.695 276.408,37.6 276.435,37.505 276.463,37.41 276.49,37.315 276.518,37.22 276.545,37.125 276.573,37.03 276.6,36.935 276.624,36.84 276.648,36.745 276.671,36.65 276.695,36.555 276.719,36.46 276.743,36.365 276.766,36.27 276.79,36.175 276.814,36.08 276.838,35.985 276.861,35.89 276.885,35.795 276.909,35.7 276.933,35.605 276.956,35.51 276.98,35.415 276.998,35.32 277.015,35.225 277.033,35.13 277.05,35.035 277.067,34.94 277.085,34.845 277.103,34.75 277.12,34.655 277.137,34.56 277.155,34.465 277.173,34.37 277.19,34.275 277.207,34.18 277.225,34.085 277.243,33.99 277.26,33.895 277.273,33.8 277.286,33.705 277.299,33.61 277.312,33.515 277.326,33.42 277.339,33.325 277.352,33.23 277.365,33.135 277.378,33.04 277.391,32.945 277.404,32.85 277.418,32.755 277.431,32.66 277.444,32.565 277.457,32.47 277.47,32.375 277.475,32.28 277.48,32.185 277.485,32.09 277.49,31.995 277.495,31.9 277.5,31.805 277.505,31.71 277.51,31.615 277.515,31.52 277.52,31.425 277.525,31.33 277.53,31.235 277.535,31.14 277.54,31.045 277.545,30.95 277.55,30.855 277.556,30.739 277.561,30.622 277.567,30.506 277.572,30.39 277.578,30.273 277.584,30.157 277.589,30.041 277.595,29.924 277.601,29.808 277.606,29.691 277.612,29.575 277.618,29.459 277.623,29.342 277.629,29.226 277.634,29.11 277.64,28.993 277.636,28.898 277.631,28.803 277.627,28.708 277.623,28.613 277.618,28.518 277.614,28.423 277.609,28.328 277.605,28.233 277.601,28.138 277.596,28.043 277.592,27.948 277.587,27.853 277.583,27.758 277.579,27.663 277.574,27.568 277.57,27.473 277.564,27.378 277.559,27.283 277.553,27.188 277.548,27.093 277.542,26.998 277.536,26.903 277.531,26.808 277.525,26.713 277.519,26.618 277.514,26.523 277.508,26.428 277.502,26.333 277.497,26.238 277.491,26.143 277.486,26.048 277.48,25.953 277.468,25.858 277.456,25.763 277.444,25.668 277.433,25.573 277.421,25.478 277.409,25.383 277.397,25.288 277.385,25.193 277.373,25.098 277.361,25.003 277.349,24.908 277.338,24.813 277.326,24.718 277.314,24.623 277.302,24.528 277.29,24.433 277.276,24.338 277.263,24.243 277.249,24.148 277.235,24.053 277.221,23.958 277.207,23.863 277.194,23.768 277.18,23.673 277.166,23.578 277.153,23.483 277.139,23.388 277.125,23.293 277.111,23.198 277.097,23.103 277.084,23.008 277.07,22.913 277.045,22.818 277.02,22.723 276.995,22.628 276.97,22.533 276.945,22.438 276.92,22.343 276.895,22.248 276.87,22.153 276.845,22.058 276.82,21.963 276.795,21.868 276.77,21.773 276.745,21.678 276.72,21.583 276.695,21.488 276.67,21.393 276.639,21.286 276.608,21.18 276.576,21.073 276.545,20.966 276.514,20.859 276.483,20.752 276.451,20.645 276.42,20.538 276.389,20.431 276.358,20.325 276.326,20.218 276.295,20.111 276.264,20.004 276.233,19.897 276.201,19.79 276.17,19.683 276.131,19.588 276.093,19.493 276.054,19.398 276.015,19.303 275.976,19.208 275.938,19.113 275.899,19.018 275.86,18.923 275.821,18.828 275.783,18.733 275.744,18.638 275.705,18.543 275.666,18.448 275.627,18.353 275.589,18.258 275.55,18.163 275.504,18.068 275.457,17.973 275.411,17.878 275.365,17.783 275.319,17.688 275.273,17.593 275.226,17.498 275.18,17.403 275.134,17.308 275.087,17.213 275.041,17.118 274.995,17.023 274.949,16.928 274.903,16.833 274.856,16.738 274.81,16.643 274.754,16.548 274.697,16.453 274.641,16.358 274.585,16.263 274.529,16.168 274.473,16.073 274.416,15.978 274.36,15.883 274.304,15.788 274.248,15.693 274.191,15.598 274.135,15.503 274.079,15.408 274.023,15.313 273.966,15.218 273.91,15.123 273.841,15.028 273.773,14.933 273.704,14.838 273.635,14.743 273.566,14.648 273.498,14.553 273.429,14.458 273.36,14.363 273.291,14.268 273.223,14.173 273.154,14.078 273.085,13.983 273.016,13.888 272.947,13.793 272.879,13.698 272.81,13.603 272.721,13.499 272.631,13.394 272.542,13.29 272.452,13.185 272.363,13.081 272.274,12.976 272.184,12.872 272.095,12.767 272.006,12.663 271.916,12.558 271.827,12.454 271.738,12.349 271.648,12.245 271.559,12.14 271.469,12.036 271.38,11.931 271.283,11.824 271.186,11.718 271.089,11.611 270.993,11.504 270.896,11.397 270.799,11.29 270.702,11.183 270.605,11.076 270.508,10.969 270.411,10.862 270.314,10.756 270.217,10.649 270.121,10.542 270.024,10.435 269.927,10.328" stroke="rgb(255,255,255)" stroke-width="4.25" fill="none" stroke-linecap="round" stroke-linejoin="round" /><text x="304.0" y="45.031" font-family="FondiNewCM" font-size="50" font-style="normal" text-anchor="middle" dominant-baseline="alphabetic" fill="rgb(255,255,255)">=</text><text x="340.0" y="45.031" font-family="FondiNewCM" font-size="50" font-style="normal" text-anchor="middle" dominant-baseline="alphabetic" fill="rgb(255,255,255)">0</text></g></svg>